<?xml version="1.0" encoding="UTF-8" standalone="no"?><svg xmlns="http://www.w3.org/2000/svg" xmlns:xlink="http://www.w3.org/1999/xlink" clip-rule="evenodd" stroke-miterlimit="10" viewBox="0 0 1920 1080"><desc>SVG generated by Keynote</desc><defs></defs><g transform="matrix(1.00, 0.00, -0.00, -1.00, 0.0, 1080.0)"><path d="M 0.0 1080.0 L 1920.0 1080.0 L 1920.0 0.0 L 0.0 0.0 Z M 0.0 1080.0 " fill="#EB5C56"></path><path d="M 181.0 682.8 L 640.8 682.8 L 640.8 627.8 L 181.0 627.8 Z M 181.0 682.8 " fill="#FEFFFE"></path><path d="M 181.0 627.8 L 885.2 627.8 L 885.2 520.8 L 181.0 520.8 Z M 181.0 627.8 " fill="#FEFFFE"></path><path d="M 181.0 520.8 L 489.2 520.8 L 489.2 413.9 L 181.0 413.9 Z M 181.0 520.8 " fill="#FEFFFE"></path><path d="M 181.0 413.9 L 669.0 413.9 L 669.0 307.0 L 181.0 307.0 Z M 181.0 413.9 " fill="#FEFFFE"></path><path d="M 181.0 307.0 L 450.8 307.0 L 450.8 252.0 L 181.0 252.0 Z M 181.0 307.0 " fill="#FEFFFE"></path><path d="M 181.0 252.0 L 392.7 252.0 L 392.7 145.1 L 181.0 145.1 Z M 181.0 252.0 " fill="#FEFFFE"></path><text xml:space="preserve" font-family="Helvetica-Light,Helvetica" font-size="34.3" fill="#000000" transform="matrix(1.00, 0.00, -0.00, -1.00, 137.0, 642.7)">•</text><text xml:space="preserve" font-family="Helvetica-Light,Helvetica" font-size="45.8" fill="#000000" transform="matrix(1.00, 0.00, -0.00, -1.00, 181.0, 638.3)">п</text><text xml:space="preserve" font-family="Helvetica-Light,Helvetica" font-size="45.8" fill="#000000" transform="matrix(1.00, 0.00, -0.00, -1.00, 205.3, 638.3)">о</text><text xml:space="preserve" font-family="Helvetica-Light,Helvetica" font-size="45.8" fill="#000000" transform="matrix(1.00, 0.00, -0.00, -1.00, 230.7, 638.3)">л</text><text xml:space="preserve" font-family="Helvetica-Light,Helvetica" font-size="45.8" fill="#000000" transform="matrix(1.00, 0.00, -0.00, -1.00, 256.5, 638.3)">у</text><text xml:space="preserve" font-family="Helvetica-Light,Helvetica" font-size="45.8" fill="#000000" transform="matrix(1.00, 0.00, -0.00, -1.00, 277.7, 638.3)">ч</text><text xml:space="preserve" font-family="Helvetica-Light,Helvetica" font-size="45.8" fill="#000000" transform="matrix(1.00, 0.00, -0.00, -1.00, 300.5, 638.3)">и</text><text xml:space="preserve" font-family="Helvetica-Light,Helvetica" font-size="45.8" fill="#000000" transform="matrix(1.00, 0.00, -0.00, -1.00, 325.4, 638.3)">т</text><text xml:space="preserve" font-family="Helvetica-Light,Helvetica" font-size="45.8" fill="#000000" transform="matrix(1.00, 0.00, -0.00, -1.00, 345.7, 638.3)">ь</text><text xml:space="preserve" font-family="Helvetica-Light,Helvetica" font-size="45.8" fill="#000000" transform="matrix(1.00, 0.00, -0.00, -1.00, 368.6, 638.3)"> </text><text xml:space="preserve" font-family="Helvetica-Light,Helvetica" font-size="45.8" fill="#000000" transform="matrix(1.00, 0.00, -0.00, -1.00, 381.3, 638.3)">с</text><text xml:space="preserve" font-family="Helvetica-Light,Helvetica" font-size="45.8" fill="#000000" transform="matrix(1.00, 0.00, -0.00, -1.00, 405.0, 638.3)">о</text><text xml:space="preserve" font-family="Helvetica-Light,Helvetica" font-size="45.8" fill="#000000" transform="matrix(1.00, 0.00, -0.00, -1.00, 430.5, 638.3)">о</text><text xml:space="preserve" font-family="Helvetica-Light,Helvetica" font-size="45.8" fill="#000000" transform="matrix(1.00, 0.00, -0.00, -1.00, 455.9, 638.3)">б</text><text xml:space="preserve" font-family="Helvetica-Light,Helvetica" font-size="45.8" fill="#000000" transform="matrix(1.00, 0.00, -0.00, -1.00, 481.4, 638.3)">щ</text><text xml:space="preserve" font-family="Helvetica-Light,Helvetica" font-size="45.8" fill="#000000" transform="matrix(1.00, 0.00, -0.00, -1.00, 518.3, 638.3)">е</text><text xml:space="preserve" font-family="Helvetica-Light,Helvetica" font-size="45.8" fill="#000000" transform="matrix(1.00, 0.00, -0.00, -1.00, 542.1, 638.3)">н</text><text xml:space="preserve" font-family="Helvetica-Light,Helvetica" font-size="45.8" fill="#000000" transform="matrix(1.00, 0.00, -0.00, -1.00, 566.7, 638.3)">и</text><text xml:space="preserve" font-family="Helvetica-Light,Helvetica" font-size="45.8" fill="#000000" transform="matrix(1.00, 0.00, -0.00, -1.00, 591.6, 638.3)">е</text><text xml:space="preserve" font-family="Helvetica-Light,Helvetica" font-size="45.8" fill="#000000" transform="matrix(1.00, 0.00, -0.00, -1.00, 615.3, 638.3)"> </text><text xml:space="preserve" font-family="Helvetica-Light,Helvetica" font-size="45.8" fill="#000000" transform="matrix(1.00, 0.00, -0.00, -1.00, 628.0, 638.3)"> </text><text xml:space="preserve" font-family="Helvetica-Light,Helvetica" font-size="34.3" fill="#000000" transform="matrix(1.00, 0.00, -0.00, -1.00, 137.0, 535.7)">•</text><text xml:space="preserve" font-family="Helvetica-Light,Helvetica" font-size="45.8" fill="#000000" transform="matrix(1.00, 0.00, -0.00, -1.00, 181.0, 531.4)">п</text><text xml:space="preserve" font-family="Helvetica-Light,Helvetica" font-size="45.8" fill="#000000" transform="matrix(1.00, 0.00, -0.00, -1.00, 205.3, 531.4)">р</text><text xml:space="preserve" font-family="Helvetica-Light,Helvetica" font-size="45.8" fill="#000000" transform="matrix(1.00, 0.00, -0.00, -1.00, 231.5, 531.4)">о</text><text xml:space="preserve" font-family="Helvetica-Light,Helvetica" font-size="45.8" fill="#000000" transform="matrix(1.00, 0.00, -0.00, -1.00, 257.0, 531.4)">с</text><text xml:space="preserve" font-family="Helvetica-Light,Helvetica" font-size="45.8" fill="#000000" transform="matrix(1.00, 0.00, -0.00, -1.00, 280.7, 531.4)">м</text><text xml:space="preserve" font-family="Helvetica-Light,Helvetica" font-size="45.8" fill="#000000" transform="matrix(1.00, 0.00, -0.00, -1.00, 311.3, 531.4)">о</text><text xml:space="preserve" font-family="Helvetica-Light,Helvetica" font-size="45.8" fill="#000000" transform="matrix(1.00, 0.00, -0.00, -1.00, 336.7, 531.4)">т</text><text xml:space="preserve" font-family="Helvetica-Light,Helvetica" font-size="45.8" fill="#000000" transform="matrix(1.00, 0.00, -0.00, -1.00, 357.0, 531.4)">р</text><text xml:space="preserve" font-family="Helvetica-Light,Helvetica" font-size="45.8" fill="#000000" transform="matrix(1.00, 0.00, -0.00, -1.00, 383.3, 531.4)">е</text><text xml:space="preserve" font-family="Helvetica-Light,Helvetica" font-size="45.8" fill="#000000" transform="matrix(1.00, 0.00, -0.00, -1.00, 407.0, 531.4)">т</text><text xml:space="preserve" font-family="Helvetica-Light,Helvetica" font-size="45.8" fill="#000000" transform="matrix(1.00, 0.00, -0.00, -1.00, 427.3, 531.4)">ь</text><text xml:space="preserve" font-family="Helvetica-Light,Helvetica" font-size="45.8" fill="#000000" transform="matrix(1.00, 0.00, -0.00, -1.00, 450.2, 531.4)"> </text><text xml:space="preserve" font-family="Helvetica-Light,Helvetica" font-size="45.8" fill="#000000" transform="matrix(1.00, 0.00, -0.00, -1.00, 462.9, 531.4)">и</text><text xml:space="preserve" font-family="Helvetica-Light,Helvetica" font-size="45.8" fill="#000000" transform="matrix(1.00, 0.00, -0.00, -1.00, 487.8, 531.4)"> </text><text xml:space="preserve" font-family="Helvetica-Light,Helvetica" font-size="45.8" fill="#000000" transform="matrix(1.00, 0.00, -0.00, -1.00, 500.5, 531.4)">с</text><text xml:space="preserve" font-family="Helvetica-Light,Helvetica" font-size="45.8" fill="#000000" transform="matrix(1.00, 0.00, -0.00, -1.00, 524.2, 531.4)">к</text><text xml:space="preserve" font-family="Helvetica-Light,Helvetica" font-size="45.8" fill="#000000" transform="matrix(1.00, 0.00, -0.00, -1.00, 547.0, 531.4)">а</text><text xml:space="preserve" font-family="Helvetica-Light,Helvetica" font-size="45.8" fill="#000000" transform="matrix(1.00, 0.00, -0.00, -1.00, 570.8, 531.4)">ч</text><text xml:space="preserve" font-family="Helvetica-Light,Helvetica" font-size="45.8" fill="#000000" transform="matrix(1.00, 0.00, -0.00, -1.00, 593.6, 531.4)">а</text><text xml:space="preserve" font-family="Helvetica-Light,Helvetica" font-size="45.8" fill="#000000" transform="matrix(1.00, 0.00, -0.00, -1.00, 617.3, 531.4)">т</text><text xml:space="preserve" font-family="Helvetica-Light,Helvetica" font-size="45.8" fill="#000000" transform="matrix(1.00, 0.00, -0.00, -1.00, 637.6, 531.4)">ь</text><text xml:space="preserve" font-family="Helvetica-Light,Helvetica" font-size="45.8" fill="#000000" transform="matrix(1.00, 0.00, -0.00, -1.00, 660.5, 531.4)"> </text><text xml:space="preserve" font-family="Helvetica-Light,Helvetica" font-size="45.8" fill="#000000" transform="matrix(1.00, 0.00, -0.00, -1.00, 673.2, 531.4)">к</text><text xml:space="preserve" font-family="Helvetica-Light,Helvetica" font-size="45.8" fill="#000000" transform="matrix(1.00, 0.00, -0.00, -1.00, 696.0, 531.4)">а</text><text xml:space="preserve" font-family="Helvetica-Light,Helvetica" font-size="45.8" fill="#000000" transform="matrix(1.00, 0.00, -0.00, -1.00, 719.7, 531.4)">р</text><text xml:space="preserve" font-family="Helvetica-Light,Helvetica" font-size="45.8" fill="#000000" transform="matrix(1.00, 0.00, -0.00, -1.00, 746.0, 531.4)">т</text><text xml:space="preserve" font-family="Helvetica-Light,Helvetica" font-size="45.8" fill="#000000" transform="matrix(1.00, 0.00, -0.00, -1.00, 766.3, 531.4)">и</text><text xml:space="preserve" font-family="Helvetica-Light,Helvetica" font-size="45.8" fill="#000000" transform="matrix(1.00, 0.00, -0.00, -1.00, 791.2, 531.4)">н</text><text xml:space="preserve" font-family="Helvetica-Light,Helvetica" font-size="45.8" fill="#000000" transform="matrix(1.00, 0.00, -0.00, -1.00, 815.7, 531.4)">к</text><text xml:space="preserve" font-family="Helvetica-Light,Helvetica" font-size="45.8" fill="#000000" transform="matrix(1.00, 0.00, -0.00, -1.00, 838.5, 531.4)">у</text><text xml:space="preserve" font-family="Helvetica-Light,Helvetica" font-size="45.8" fill="#000000" transform="matrix(1.00, 0.00, -0.00, -1.00, 859.7, 531.4)"> </text><text xml:space="preserve" font-family="Helvetica-Light,Helvetica" font-size="45.8" fill="#000000" transform="matrix(1.00, 0.00, -0.00, -1.00, 872.4, 531.4)"> </text><text xml:space="preserve" font-family="Helvetica-Light,Helvetica" font-size="34.3" fill="#000000" transform="matrix(1.00, 0.00, -0.00, -1.00, 137.0, 428.8)">•</text><text xml:space="preserve" font-family="Helvetica-Light,Helvetica" font-size="45.8" fill="#000000" transform="matrix(1.00, 0.00, -0.00, -1.00, 181.0, 424.4)">в</text><text xml:space="preserve" font-family="Helvetica-Light,Helvetica" font-size="45.8" fill="#000000" transform="matrix(1.00, 0.00, -0.00, -1.00, 204.7, 424.4)">н</text><text xml:space="preserve" font-family="Helvetica-Light,Helvetica" font-size="45.8" fill="#000000" transform="matrix(1.00, 0.00, -0.00, -1.00, 229.2, 424.4)">е</text><text xml:space="preserve" font-family="Helvetica-Light,Helvetica" font-size="45.8" fill="#000000" transform="matrix(1.00, 0.00, -0.00, -1.00, 253.0, 424.4)">с</text><text xml:space="preserve" font-family="Helvetica-Light,Helvetica" font-size="45.8" fill="#000000" transform="matrix(1.00, 0.00, -0.00, -1.00, 276.7, 424.4)">т</text><text xml:space="preserve" font-family="Helvetica-Light,Helvetica" font-size="45.8" fill="#000000" transform="matrix(1.00, 0.00, -0.00, -1.00, 297.0, 424.4)">и</text><text xml:space="preserve" font-family="Helvetica-Light,Helvetica" font-size="45.8" fill="#000000" transform="matrix(1.00, 0.00, -0.00, -1.00, 321.9, 424.4)"> </text><text xml:space="preserve" font-family="Helvetica-Light,Helvetica" font-size="45.8" fill="#000000" transform="matrix(1.00, 0.00, -0.00, -1.00, 334.6, 424.4)">п</text><text xml:space="preserve" font-family="Helvetica-Light,Helvetica" font-size="45.8" fill="#000000" transform="matrix(1.00, 0.00, -0.00, -1.00, 358.9, 424.4)">р</text><text xml:space="preserve" font-family="Helvetica-Light,Helvetica" font-size="45.8" fill="#000000" transform="matrix(1.00, 0.00, -0.00, -1.00, 385.1, 424.4)">а</text><text xml:space="preserve" font-family="Helvetica-Light,Helvetica" font-size="45.8" fill="#000000" transform="matrix(1.00, 0.00, -0.00, -1.00, 408.9, 424.4)">в</text><text xml:space="preserve" font-family="Helvetica-Light,Helvetica" font-size="45.8" fill="#000000" transform="matrix(1.00, 0.00, -0.00, -1.00, 432.5, 424.4)">к</text><text xml:space="preserve" font-family="Helvetica-Light,Helvetica" font-size="45.8" fill="#000000" transform="matrix(1.00, 0.00, -0.00, -1.00, 455.3, 424.4)">у</text><text xml:space="preserve" font-family="Helvetica-Light,Helvetica" font-size="45.8" fill="#000000" transform="matrix(1.00, 0.00, -0.00, -1.00, 476.5, 424.4)"> </text><text xml:space="preserve" font-family="Helvetica-Light,Helvetica" font-size="34.3" fill="#000000" transform="matrix(1.00, 0.00, -0.00, -1.00, 137.0, 321.9)">•</text><text xml:space="preserve" font-family="Helvetica-Light,Helvetica" font-size="45.8" fill="#000000" transform="matrix(1.00, 0.00, -0.00, -1.00, 181.0, 317.5)">п</text><text xml:space="preserve" font-family="Helvetica-Light,Helvetica" font-size="45.8" fill="#000000" transform="matrix(1.00, 0.00, -0.00, -1.00, 205.3, 317.5)">р</text><text xml:space="preserve" font-family="Helvetica-Light,Helvetica" font-size="45.8" fill="#000000" transform="matrix(1.00, 0.00, -0.00, -1.00, 231.5, 317.5)">и</text><text xml:space="preserve" font-family="Helvetica-Light,Helvetica" font-size="45.8" fill="#000000" transform="matrix(1.00, 0.00, -0.00, -1.00, 256.4, 317.5)">к</text><text xml:space="preserve" font-family="Helvetica-Light,Helvetica" font-size="45.8" fill="#000000" transform="matrix(1.00, 0.00, -0.00, -1.00, 279.2, 317.5)">р</text><text xml:space="preserve" font-family="Helvetica-Light,Helvetica" font-size="45.8" fill="#000000" transform="matrix(1.00, 0.00, -0.00, -1.00, 305.5, 317.5)">е</text><text xml:space="preserve" font-family="Helvetica-Light,Helvetica" font-size="45.8" fill="#000000" transform="matrix(1.00, 0.00, -0.00, -1.00, 329.2, 317.5)">п</text><text xml:space="preserve" font-family="Helvetica-Light,Helvetica" font-size="45.8" fill="#000000" transform="matrix(1.00, 0.00, -0.00, -1.00, 353.5, 317.5)">и</text><text xml:space="preserve" font-family="Helvetica-Light,Helvetica" font-size="45.8" fill="#000000" transform="matrix(1.00, 0.00, -0.00, -1.00, 378.4, 317.5)">т</text><text xml:space="preserve" font-family="Helvetica-Light,Helvetica" font-size="45.8" fill="#000000" transform="matrix(1.00, 0.00, -0.00, -1.00, 398.6, 317.5)">ь</text><text xml:space="preserve" font-family="Helvetica-Light,Helvetica" font-size="45.8" fill="#000000" transform="matrix(1.00, 0.00, -0.00, -1.00, 421.5, 317.5)"> </text><text xml:space="preserve" font-family="Helvetica-Light,Helvetica" font-size="45.8" fill="#000000" transform="matrix(1.00, 0.00, -0.00, -1.00, 434.2, 317.5)">к</text><text xml:space="preserve" font-family="Helvetica-Light,Helvetica" font-size="45.8" fill="#000000" transform="matrix(1.00, 0.00, -0.00, -1.00, 457.0, 317.5)">а</text><text xml:space="preserve" font-family="Helvetica-Light,Helvetica" font-size="45.8" fill="#000000" transform="matrix(1.00, 0.00, -0.00, -1.00, 480.8, 317.5)">р</text><text xml:space="preserve" font-family="Helvetica-Light,Helvetica" font-size="45.8" fill="#000000" transform="matrix(1.00, 0.00, -0.00, -1.00, 507.0, 317.5)">т</text><text xml:space="preserve" font-family="Helvetica-Light,Helvetica" font-size="45.8" fill="#000000" transform="matrix(1.00, 0.00, -0.00, -1.00, 527.3, 317.5)">и</text><text xml:space="preserve" font-family="Helvetica-Light,Helvetica" font-size="45.8" fill="#000000" transform="matrix(1.00, 0.00, -0.00, -1.00, 552.2, 317.5)">н</text><text xml:space="preserve" font-family="Helvetica-Light,Helvetica" font-size="45.8" fill="#000000" transform="matrix(1.00, 0.00, -0.00, -1.00, 576.8, 317.5)">к</text><text xml:space="preserve" font-family="Helvetica-Light,Helvetica" font-size="45.8" fill="#000000" transform="matrix(1.00, 0.00, -0.00, -1.00, 599.6, 317.5)">у</text><text xml:space="preserve" font-family="Helvetica-Light,Helvetica" font-size="45.8" fill="#000000" transform="matrix(1.00, 0.00, -0.00, -1.00, 620.8, 317.5)"> </text><text xml:space="preserve" font-family="Helvetica-Light,Helvetica" font-size="45.8" fill="#000000" transform="matrix(1.00, 0.00, -0.00, -1.00, 633.5, 317.5)">к</text><text xml:space="preserve" font-family="Helvetica-Light,Helvetica" font-size="45.8" fill="#000000" transform="matrix(1.00, 0.00, -0.00, -1.00, 656.3, 317.5)"> </text><text xml:space="preserve" font-family="Helvetica-Light,Helvetica" font-size="45.8" fill="#000000" transform="matrix(1.00, 0.00, -0.00, -1.00, 181.0, 262.5)">с</text><text xml:space="preserve" font-family="Helvetica-Light,Helvetica" font-size="45.8" fill="#000000" transform="matrix(1.00, 0.00, -0.00, -1.00, 204.7, 262.5)">о</text><text xml:space="preserve" font-family="Helvetica-Light,Helvetica" font-size="45.8" fill="#000000" transform="matrix(1.00, 0.00, -0.00, -1.00, 230.2, 262.5)">о</text><text xml:space="preserve" font-family="Helvetica-Light,Helvetica" font-size="45.8" fill="#000000" transform="matrix(1.00, 0.00, -0.00, -1.00, 255.6, 262.5)">б</text><text xml:space="preserve" font-family="Helvetica-Light,Helvetica" font-size="45.8" fill="#000000" transform="matrix(1.00, 0.00, -0.00, -1.00, 281.1, 262.5)">щ</text><text xml:space="preserve" font-family="Helvetica-Light,Helvetica" font-size="45.8" fill="#000000" transform="matrix(1.00, 0.00, -0.00, -1.00, 318.1, 262.5)">е</text><text xml:space="preserve" font-family="Helvetica-Light,Helvetica" font-size="45.8" fill="#000000" transform="matrix(1.00, 0.00, -0.00, -1.00, 341.8, 262.5)">н</text><text xml:space="preserve" font-family="Helvetica-Light,Helvetica" font-size="45.8" fill="#000000" transform="matrix(1.00, 0.00, -0.00, -1.00, 366.4, 262.5)">и</text><text xml:space="preserve" font-family="Helvetica-Light,Helvetica" font-size="45.8" fill="#000000" transform="matrix(1.00, 0.00, -0.00, -1.00, 391.3, 262.5)">ю</text><text xml:space="preserve" font-family="Helvetica-Light,Helvetica" font-size="45.8" fill="#000000" transform="matrix(1.00, 0.00, -0.00, -1.00, 425.4, 262.5)"> </text><text xml:space="preserve" font-family="Helvetica-Light,Helvetica" font-size="45.8" fill="#000000" transform="matrix(1.00, 0.00, -0.00, -1.00, 438.1, 262.5)"> </text><text xml:space="preserve" font-family="Helvetica-Light,Helvetica" font-size="34.3" fill="#000000" transform="matrix(1.00, 0.00, -0.00, -1.00, 137.0, 160.0)">•</text><text xml:space="preserve" font-family="Helvetica-Light,Helvetica" font-size="45.8" fill="#000000" transform="matrix(1.00, 0.00, -0.00, -1.00, 181.0, 155.6)">о</text><text xml:space="preserve" font-family="Helvetica-Light,Helvetica" font-size="45.8" fill="#000000" transform="matrix(1.00, 0.00, -0.00, -1.00, 206.4, 155.6)">т</text><text xml:space="preserve" font-family="Helvetica-Light,Helvetica" font-size="45.8" fill="#000000" transform="matrix(1.00, 0.00, -0.00, -1.00, 226.7, 155.6)">п</text><text xml:space="preserve" font-family="Helvetica-Light,Helvetica" font-size="45.8" fill="#000000" transform="matrix(1.00, 0.00, -0.00, -1.00, 251.0, 155.6)">р</text><text xml:space="preserve" font-family="Helvetica-Light,Helvetica" font-size="45.8" fill="#000000" transform="matrix(1.00, 0.00, -0.00, -1.00, 277.2, 155.6)">а</text><text xml:space="preserve" font-family="Helvetica-Light,Helvetica" font-size="45.8" fill="#000000" transform="matrix(1.00, 0.00, -0.00, -1.00, 301.0, 155.6)">в</text><text xml:space="preserve" font-family="Helvetica-Light,Helvetica" font-size="45.8" fill="#000000" transform="matrix(1.00, 0.00, -0.00, -1.00, 324.6, 155.6)">и</text><text xml:space="preserve" font-family="Helvetica-Light,Helvetica" font-size="45.8" fill="#000000" transform="matrix(1.00, 0.00, -0.00, -1.00, 349.5, 155.6)">т</text><text xml:space="preserve" font-family="Helvetica-Light,Helvetica" font-size="45.8" fill="#000000" transform="matrix(1.00, 0.00, -0.00, -1.00, 369.8, 155.6)">ь</text><path d="M 1083.9 536.3 L 1795.2 536.3 L 1795.2 474.3 L 1083.9 474.3 Z M 1083.9 536.3 " fill="#FEFFFE"></path><path d="M 1083.9 474.3 L 1534.6 474.3 L 1534.6 353.3 L 1083.9 353.3 Z M 1083.9 474.3 " fill="#FEFFFE"></path><path d="M 1083.9 353.3 L 1576.8 353.3 L 1576.8 291.3 L 1083.9 291.3 Z M 1083.9 353.3 " fill="#FEFFFE"></path><text xml:space="preserve" font-family="Helvetica-Light,Helvetica" font-size="39.0" fill="#000000" transform="matrix(1.00, 0.00, -0.00, -1.00, 1033.9, 490.7)">•</text><text xml:space="preserve" font-family="Helvetica-Light,Helvetica" font-size="52.0" fill="#000000" transform="matrix(1.00, 0.00, -0.00, -1.00, 1083.9, 486.2)">у</text><text xml:space="preserve" font-family="Helvetica-Light,Helvetica" font-size="52.0" fill="#000000" transform="matrix(1.00, 0.00, -0.00, -1.00, 1107.9, 486.2)">в</text><text xml:space="preserve" font-family="Helvetica-Light,Helvetica" font-size="52.0" fill="#000000" transform="matrix(1.00, 0.00, -0.00, -1.00, 1134.8, 486.2)">и</text><text xml:space="preserve" font-family="Helvetica-Light,Helvetica" font-size="52.0" fill="#000000" transform="matrix(1.00, 0.00, -0.00, -1.00, 1163.1, 486.2)">д</text><text xml:space="preserve" font-family="Helvetica-Light,Helvetica" font-size="52.0" fill="#000000" transform="matrix(1.00, 0.00, -0.00, -1.00, 1192.8, 486.2)">е</text><text xml:space="preserve" font-family="Helvetica-Light,Helvetica" font-size="52.0" fill="#000000" transform="matrix(1.00, 0.00, -0.00, -1.00, 1219.7, 486.2)">т</text><text xml:space="preserve" font-family="Helvetica-Light,Helvetica" font-size="52.0" fill="#000000" transform="matrix(1.00, 0.00, -0.00, -1.00, 1242.8, 486.2)">ь</text><text xml:space="preserve" font-family="Helvetica-Light,Helvetica" font-size="52.0" fill="#000000" transform="matrix(1.00, 0.00, -0.00, -1.00, 1268.8, 486.2)"> </text><text xml:space="preserve" font-family="Helvetica-Light,Helvetica" font-size="52.0" fill="#000000" transform="matrix(1.00, 0.00, -0.00, -1.00, 1283.2, 486.2)">и</text><text xml:space="preserve" font-family="Helvetica-Light,Helvetica" font-size="52.0" fill="#000000" transform="matrix(1.00, 0.00, -0.00, -1.00, 1311.5, 486.2)">з</text><text xml:space="preserve" font-family="Helvetica-Light,Helvetica" font-size="52.0" fill="#000000" transform="matrix(1.00, 0.00, -0.00, -1.00, 1336.7, 486.2)">м</text><text xml:space="preserve" font-family="Helvetica-Light,Helvetica" font-size="52.0" fill="#000000" transform="matrix(1.00, 0.00, -0.00, -1.00, 1371.5, 486.2)">е</text><text xml:space="preserve" font-family="Helvetica-Light,Helvetica" font-size="52.0" fill="#000000" transform="matrix(1.00, 0.00, -0.00, -1.00, 1398.5, 486.2)">н</text><text xml:space="preserve" font-family="Helvetica-Light,Helvetica" font-size="52.0" fill="#000000" transform="matrix(1.00, 0.00, -0.00, -1.00, 1426.4, 486.2)">е</text><text xml:space="preserve" font-family="Helvetica-Light,Helvetica" font-size="52.0" fill="#000000" transform="matrix(1.00, 0.00, -0.00, -1.00, 1453.4, 486.2)">н</text><text xml:space="preserve" font-family="Helvetica-Light,Helvetica" font-size="52.0" fill="#000000" transform="matrix(1.00, 0.00, -0.00, -1.00, 1481.3, 486.2)">и</text><text xml:space="preserve" font-family="Helvetica-Light,Helvetica" font-size="52.0" fill="#000000" transform="matrix(1.00, 0.00, -0.00, -1.00, 1509.6, 486.2)">е</text><text xml:space="preserve" font-family="Helvetica-Light,Helvetica" font-size="52.0" fill="#000000" transform="matrix(1.00, 0.00, -0.00, -1.00, 1536.6, 486.2)"> </text><text xml:space="preserve" font-family="Helvetica-Light,Helvetica" font-size="52.0" fill="#000000" transform="matrix(1.00, 0.00, -0.00, -1.00, 1551.0, 486.2)">н</text><text xml:space="preserve" font-family="Helvetica-Light,Helvetica" font-size="52.0" fill="#000000" transform="matrix(1.00, 0.00, -0.00, -1.00, 1579.0, 486.2)">а</text><text xml:space="preserve" font-family="Helvetica-Light,Helvetica" font-size="52.0" fill="#000000" transform="matrix(1.00, 0.00, -0.00, -1.00, 1606.0, 486.2)"> </text><text xml:space="preserve" font-family="Helvetica-Light,Helvetica" font-size="52.0" fill="#000000" transform="matrix(1.00, 0.00, -0.00, -1.00, 1620.4, 486.2)">х</text><text xml:space="preserve" font-family="Helvetica-Light,Helvetica" font-size="52.0" fill="#000000" transform="matrix(1.00, 0.00, -0.00, -1.00, 1645.4, 486.2)">о</text><text xml:space="preserve" font-family="Helvetica-Light,Helvetica" font-size="52.0" fill="#000000" transform="matrix(1.00, 0.00, -0.00, -1.00, 1674.3, 486.2)">л</text><text xml:space="preserve" font-family="Helvetica-Light,Helvetica" font-size="52.0" fill="#000000" transform="matrix(1.00, 0.00, -0.00, -1.00, 1703.7, 486.2)">с</text><text xml:space="preserve" font-family="Helvetica-Light,Helvetica" font-size="52.0" fill="#000000" transform="matrix(1.00, 0.00, -0.00, -1.00, 1730.7, 486.2)">т</text><text xml:space="preserve" font-family="Helvetica-Light,Helvetica" font-size="52.0" fill="#000000" transform="matrix(1.00, 0.00, -0.00, -1.00, 1753.7, 486.2)">е</text><text xml:space="preserve" font-family="Helvetica-Light,Helvetica" font-size="52.0" fill="#000000" transform="matrix(1.00, 0.00, -0.00, -1.00, 1780.7, 486.2)"> </text><text xml:space="preserve" font-family="Helvetica-Light,Helvetica" font-size="39.0" fill="#000000" transform="matrix(1.00, 0.00, -0.00, -1.00, 1033.9, 369.7)">•</text><text xml:space="preserve" font-family="Helvetica-Light,Helvetica" font-size="52.0" fill="#000000" transform="matrix(1.00, 0.00, -0.00, -1.00, 1083.9, 365.2)">в</text><text xml:space="preserve" font-family="Helvetica-Light,Helvetica" font-size="52.0" fill="#000000" transform="matrix(1.00, 0.00, -0.00, -1.00, 1110.8, 365.2)">н</text><text xml:space="preserve" font-family="Helvetica-Light,Helvetica" font-size="52.0" fill="#000000" transform="matrix(1.00, 0.00, -0.00, -1.00, 1138.7, 365.2)">е</text><text xml:space="preserve" font-family="Helvetica-Light,Helvetica" font-size="52.0" fill="#000000" transform="matrix(1.00, 0.00, -0.00, -1.00, 1165.7, 365.2)">с</text><text xml:space="preserve" font-family="Helvetica-Light,Helvetica" font-size="52.0" fill="#000000" transform="matrix(1.00, 0.00, -0.00, -1.00, 1192.7, 365.2)">т</text><text xml:space="preserve" font-family="Helvetica-Light,Helvetica" font-size="52.0" fill="#000000" transform="matrix(1.00, 0.00, -0.00, -1.00, 1215.7, 365.2)">и</text><text xml:space="preserve" font-family="Helvetica-Light,Helvetica" font-size="52.0" fill="#000000" transform="matrix(1.00, 0.00, -0.00, -1.00, 1244.0, 365.2)"> </text><text xml:space="preserve" font-family="Helvetica-Light,Helvetica" font-size="52.0" fill="#000000" transform="matrix(1.00, 0.00, -0.00, -1.00, 1258.4, 365.2)">п</text><text xml:space="preserve" font-family="Helvetica-Light,Helvetica" font-size="52.0" fill="#000000" transform="matrix(1.00, 0.00, -0.00, -1.00, 1286.0, 365.2)">р</text><text xml:space="preserve" font-family="Helvetica-Light,Helvetica" font-size="52.0" fill="#000000" transform="matrix(1.00, 0.00, -0.00, -1.00, 1315.8, 365.2)">а</text><text xml:space="preserve" font-family="Helvetica-Light,Helvetica" font-size="52.0" fill="#000000" transform="matrix(1.00, 0.00, -0.00, -1.00, 1342.8, 365.2)">в</text><text xml:space="preserve" font-family="Helvetica-Light,Helvetica" font-size="52.0" fill="#000000" transform="matrix(1.00, 0.00, -0.00, -1.00, 1369.7, 365.2)">к</text><text xml:space="preserve" font-family="Helvetica-Light,Helvetica" font-size="52.0" fill="#000000" transform="matrix(1.00, 0.00, -0.00, -1.00, 1395.6, 365.2)">у</text><text xml:space="preserve" font-family="Helvetica-Light,Helvetica" font-size="52.0" fill="#000000" transform="matrix(1.00, 0.00, -0.00, -1.00, 1419.7, 365.2)"> </text><text xml:space="preserve" font-family="Helvetica-Light,Helvetica" font-size="52.0" fill="#000000" transform="matrix(1.00, 0.00, -0.00, -1.00, 1434.1, 365.2)">и</text><text xml:space="preserve" font-family="Helvetica-Light,Helvetica" font-size="52.0" fill="#000000" transform="matrix(1.00, 0.00, -0.00, -1.00, 1462.4, 365.2)">л</text><text xml:space="preserve" font-family="Helvetica-Light,Helvetica" font-size="52.0" fill="#000000" transform="matrix(1.00, 0.00, -0.00, -1.00, 1491.8, 365.2)">и</text><text xml:space="preserve" font-family="Helvetica-Light,Helvetica" font-size="52.0" fill="#000000" transform="matrix(1.00, 0.00, -0.00, -1.00, 1520.1, 365.2)"> </text><text xml:space="preserve" font-family="Helvetica-Light,Helvetica" font-size="52.0" fill="#000000" transform="matrix(1.00, 0.00, -0.00, -1.00, 1083.9, 303.2)">п</text><text xml:space="preserve" font-family="Helvetica-Light,Helvetica" font-size="52.0" fill="#000000" transform="matrix(1.00, 0.00, -0.00, -1.00, 1111.4, 303.2)">р</text><text xml:space="preserve" font-family="Helvetica-Light,Helvetica" font-size="52.0" fill="#000000" transform="matrix(1.00, 0.00, -0.00, -1.00, 1141.3, 303.2)">о</text><text xml:space="preserve" font-family="Helvetica-Light,Helvetica" font-size="52.0" fill="#000000" transform="matrix(1.00, 0.00, -0.00, -1.00, 1170.2, 303.2)">к</text><text xml:space="preserve" font-family="Helvetica-Light,Helvetica" font-size="52.0" fill="#000000" transform="matrix(1.00, 0.00, -0.00, -1.00, 1196.1, 303.2)">о</text><text xml:space="preserve" font-family="Helvetica-Light,Helvetica" font-size="52.0" fill="#000000" transform="matrix(1.00, 0.00, -0.00, -1.00, 1225.0, 303.2)">м</text><text xml:space="preserve" font-family="Helvetica-Light,Helvetica" font-size="52.0" fill="#000000" transform="matrix(1.00, 0.00, -0.00, -1.00, 1259.7, 303.2)">м</text><text xml:space="preserve" font-family="Helvetica-Light,Helvetica" font-size="52.0" fill="#000000" transform="matrix(1.00, 0.00, -0.00, -1.00, 1294.5, 303.2)">е</text><text xml:space="preserve" font-family="Helvetica-Light,Helvetica" font-size="52.0" fill="#000000" transform="matrix(1.00, 0.00, -0.00, -1.00, 1321.5, 303.2)">н</text><text xml:space="preserve" font-family="Helvetica-Light,Helvetica" font-size="52.0" fill="#000000" transform="matrix(1.00, 0.00, -0.00, -1.00, 1349.4, 303.2)">т</text><text xml:space="preserve" font-family="Helvetica-Light,Helvetica" font-size="52.0" fill="#000000" transform="matrix(1.00, 0.00, -0.00, -1.00, 1372.4, 303.2)">и</text><text xml:space="preserve" font-family="Helvetica-Light,Helvetica" font-size="52.0" fill="#000000" transform="matrix(1.00, 0.00, -0.00, -1.00, 1400.7, 303.2)">р</text><text xml:space="preserve" font-family="Helvetica-Light,Helvetica" font-size="52.0" fill="#000000" transform="matrix(1.00, 0.00, -0.00, -1.00, 1430.6, 303.2)">о</text><text xml:space="preserve" font-family="Helvetica-Light,Helvetica" font-size="52.0" fill="#000000" transform="matrix(1.00, 0.00, -0.00, -1.00, 1459.5, 303.2)">в</text><text xml:space="preserve" font-family="Helvetica-Light,Helvetica" font-size="52.0" fill="#000000" transform="matrix(1.00, 0.00, -0.00, -1.00, 1486.4, 303.2)">а</text><text xml:space="preserve" font-family="Helvetica-Light,Helvetica" font-size="52.0" fill="#000000" transform="matrix(1.00, 0.00, -0.00, -1.00, 1513.3, 303.2)">т</text><text xml:space="preserve" font-family="Helvetica-Light,Helvetica" font-size="52.0" fill="#000000" transform="matrix(1.00, 0.00, -0.00, -1.00, 1536.4, 303.2)">ь</text><text xml:space="preserve" font-family="Helvetica-Light,Helvetica" font-size="52.0" fill="#000000" transform="matrix(1.00, 0.00, -0.00, -1.00, 1562.4, 303.2)"> </text><path d="M 531.3 1035.8 L 1388.7 1035.8 L 1388.7 975.9 L 531.3 975.9 Z M 531.3 1035.8 " fill="#FEFFFE"></path><text xml:space="preserve" font-family="Helvetica-Light,Helvetica" font-size="50.0" fill="#000000" transform="matrix(1.00, 0.00, -0.00, -1.00, 531.3, 987.4)">р</text><text xml:space="preserve" font-family="Helvetica-Light,Helvetica" font-size="50.0" fill="#000000" transform="matrix(1.00, 0.00, -0.00, -1.00, 560.0, 987.4)">е</text><text xml:space="preserve" font-family="Helvetica-Light,Helvetica" font-size="50.0" fill="#000000" transform="matrix(1.00, 0.00, -0.00, -1.00, 586.0, 987.4)">ш</text><text xml:space="preserve" font-family="Helvetica-Light,Helvetica" font-size="50.0" fill="#000000" transform="matrix(1.00, 0.00, -0.00, -1.00, 625.1, 987.4)">е</text><text xml:space="preserve" font-family="Helvetica-Light,Helvetica" font-size="50.0" fill="#000000" transform="matrix(1.00, 0.00, -0.00, -1.00, 651.1, 987.4)">н</text><text xml:space="preserve" font-family="Helvetica-Light,Helvetica" font-size="50.0" fill="#000000" transform="matrix(1.00, 0.00, -0.00, -1.00, 677.9, 987.4)">и</text><text xml:space="preserve" font-family="Helvetica-Light,Helvetica" font-size="50.0" fill="#000000" transform="matrix(1.00, 0.00, -0.00, -1.00, 705.1, 987.4)">е</text><text xml:space="preserve" font-family="Helvetica-Light,Helvetica" font-size="50.0" fill="#000000" transform="matrix(1.00, 0.00, -0.00, -1.00, 731.1, 987.4)"> </text><text xml:space="preserve" font-family="Helvetica-Light,Helvetica" font-size="50.0" fill="#000000" transform="matrix(1.00, 0.00, -0.00, -1.00, 745.0, 987.4)">п</text><text xml:space="preserve" font-family="Helvetica-Light,Helvetica" font-size="50.0" fill="#000000" transform="matrix(1.00, 0.00, -0.00, -1.00, 771.5, 987.4)">р</text><text xml:space="preserve" font-family="Helvetica-Light,Helvetica" font-size="50.0" fill="#000000" transform="matrix(1.00, 0.00, -0.00, -1.00, 800.2, 987.4)">о</text><text xml:space="preserve" font-family="Helvetica-Light,Helvetica" font-size="50.0" fill="#000000" transform="matrix(1.00, 0.00, -0.00, -1.00, 828.0, 987.4)">б</text><text xml:space="preserve" font-family="Helvetica-Light,Helvetica" font-size="50.0" fill="#000000" transform="matrix(1.00, 0.00, -0.00, -1.00, 855.8, 987.4)">л</text><text xml:space="preserve" font-family="Helvetica-Light,Helvetica" font-size="50.0" fill="#000000" transform="matrix(1.00, 0.00, -0.00, -1.00, 884.0, 987.4)">е</text><text xml:space="preserve" font-family="Helvetica-Light,Helvetica" font-size="50.0" fill="#000000" transform="matrix(1.00, 0.00, -0.00, -1.00, 910.0, 987.4)">м</text><text xml:space="preserve" font-family="Helvetica-Light,Helvetica" font-size="50.0" fill="#000000" transform="matrix(1.00, 0.00, -0.00, -1.00, 943.4, 987.4)">ы</text><text xml:space="preserve" font-family="Helvetica-Light,Helvetica" font-size="50.0" fill="#000000" transform="matrix(1.00, 0.00, -0.00, -1.00, 976.9, 987.4)"> </text><text xml:space="preserve" font-family="Helvetica-Light,Helvetica" font-size="50.0" fill="#000000" transform="matrix(1.00, 0.00, -0.00, -1.00, 990.8, 987.4)">с</text><text xml:space="preserve" font-family="Helvetica-Light,Helvetica" font-size="50.0" fill="#000000" transform="matrix(1.00, 0.00, -0.00, -1.00, 1016.8, 987.4)"> </text><text xml:space="preserve" font-family="Helvetica-Light,Helvetica" font-size="50.0" fill="#000000" transform="matrix(1.00, 0.00, -0.00, -1.00, 1030.7, 987.4)">ф</text><text xml:space="preserve" font-family="Helvetica-Light,Helvetica" font-size="50.0" fill="#000000" transform="matrix(1.00, 0.00, -0.00, -1.00, 1070.7, 987.4)">р</text><text xml:space="preserve" font-family="Helvetica-Light,Helvetica" font-size="50.0" fill="#000000" transform="matrix(1.00, 0.00, -0.00, -1.00, 1099.4, 987.4)">и</text><text xml:space="preserve" font-family="Helvetica-Light,Helvetica" font-size="50.0" fill="#000000" transform="matrix(1.00, 0.00, -0.00, -1.00, 1126.6, 987.4)">л</text><text xml:space="preserve" font-family="Helvetica-Light,Helvetica" font-size="50.0" fill="#000000" transform="matrix(1.00, 0.00, -0.00, -1.00, 1154.8, 987.4)">а</text><text xml:space="preserve" font-family="Helvetica-Light,Helvetica" font-size="50.0" fill="#000000" transform="matrix(1.00, 0.00, -0.00, -1.00, 1180.8, 987.4)">н</text><text xml:space="preserve" font-family="Helvetica-Light,Helvetica" font-size="50.0" fill="#000000" transform="matrix(1.00, 0.00, -0.00, -1.00, 1207.6, 987.4)">с</text><text xml:space="preserve" font-family="Helvetica-Light,Helvetica" font-size="50.0" fill="#000000" transform="matrix(1.00, 0.00, -0.00, -1.00, 1233.6, 987.4)">е</text><text xml:space="preserve" font-family="Helvetica-Light,Helvetica" font-size="50.0" fill="#000000" transform="matrix(1.00, 0.00, -0.00, -1.00, 1259.5, 987.4)">р</text><text xml:space="preserve" font-family="Helvetica-Light,Helvetica" font-size="50.0" fill="#000000" transform="matrix(1.00, 0.00, -0.00, -1.00, 1288.2, 987.4)">а</text><text xml:space="preserve" font-family="Helvetica-Light,Helvetica" font-size="50.0" fill="#000000" transform="matrix(1.00, 0.00, -0.00, -1.00, 1314.2, 987.4)">м</text><text xml:space="preserve" font-family="Helvetica-Light,Helvetica" font-size="50.0" fill="#000000" transform="matrix(1.00, 0.00, -0.00, -1.00, 1347.6, 987.4)">и</text><text xml:space="preserve" font-family="Helvetica-Light,Helvetica" font-size="50.0" fill="#000000" transform="matrix(1.00, 0.00, -0.00, -1.00, 1374.8, 987.4)">:</text><path d="M 249.0 792.0 L 787.8 792.0 L 787.8 732.0 L 249.0 732.0 Z M 249.0 792.0 " fill="#FEFFFE"></path><text xml:space="preserve" font-family="Helvetica-Light,Helvetica" font-size="50.0" fill="#000000" transform="matrix(1.00, 0.00, -0.00, -1.00, 249.0, 743.5)">о</text><text xml:space="preserve" font-family="Helvetica-Light,Helvetica" font-size="50.0" fill="#000000" transform="matrix(1.00, 0.00, -0.00, -1.00, 276.8, 743.5)">б</text><text xml:space="preserve" font-family="Helvetica-Light,Helvetica" font-size="50.0" fill="#000000" transform="matrix(1.00, 0.00, -0.00, -1.00, 304.6, 743.5)">щ</text><text xml:space="preserve" font-family="Helvetica-Light,Helvetica" font-size="50.0" fill="#000000" transform="matrix(1.00, 0.00, -0.00, -1.00, 345.0, 743.5)">е</text><text xml:space="preserve" font-family="Helvetica-Light,Helvetica" font-size="50.0" fill="#000000" transform="matrix(1.00, 0.00, -0.00, -1.00, 371.0, 743.5)">н</text><text xml:space="preserve" font-family="Helvetica-Light,Helvetica" font-size="50.0" fill="#000000" transform="matrix(1.00, 0.00, -0.00, -1.00, 397.8, 743.5)">и</text><text xml:space="preserve" font-family="Helvetica-Light,Helvetica" font-size="50.0" fill="#000000" transform="matrix(1.00, 0.00, -0.00, -1.00, 425.0, 743.5)">е</text><text xml:space="preserve" font-family="Helvetica-Light,Helvetica" font-size="50.0" fill="#000000" transform="matrix(1.00, 0.00, -0.00, -1.00, 451.0, 743.5)"> </text><text xml:space="preserve" font-family="Helvetica-Light,Helvetica" font-size="50.0" fill="#000000" transform="matrix(1.00, 0.00, -0.00, -1.00, 464.9, 743.5)">в</text><text xml:space="preserve" font-family="Helvetica-Light,Helvetica" font-size="50.0" fill="#000000" transform="matrix(1.00, 0.00, -0.00, -1.00, 490.7, 743.5)"> </text><text xml:space="preserve" font-family="Helvetica-Light,Helvetica" font-size="50.0" fill="#000000" transform="matrix(1.00, 0.00, -0.00, -1.00, 504.6, 743.5)">м</text><text xml:space="preserve" font-family="Helvetica-Light,Helvetica" font-size="50.0" fill="#000000" transform="matrix(1.00, 0.00, -0.00, -1.00, 538.0, 743.5)">е</text><text xml:space="preserve" font-family="Helvetica-Light,Helvetica" font-size="50.0" fill="#000000" transform="matrix(1.00, 0.00, -0.00, -1.00, 564.0, 743.5)">с</text><text xml:space="preserve" font-family="Helvetica-Light,Helvetica" font-size="50.0" fill="#000000" transform="matrix(1.00, 0.00, -0.00, -1.00, 589.9, 743.5)">с</text><text xml:space="preserve" font-family="Helvetica-Light,Helvetica" font-size="50.0" fill="#000000" transform="matrix(1.00, 0.00, -0.00, -1.00, 615.9, 743.5)">е</text><text xml:space="preserve" font-family="Helvetica-Light,Helvetica" font-size="50.0" fill="#000000" transform="matrix(1.00, 0.00, -0.00, -1.00, 641.8, 743.5)">д</text><text xml:space="preserve" font-family="Helvetica-Light,Helvetica" font-size="50.0" fill="#000000" transform="matrix(1.00, 0.00, -0.00, -1.00, 670.3, 743.5)">ж</text><text xml:space="preserve" font-family="Helvetica-Light,Helvetica" font-size="50.0" fill="#000000" transform="matrix(1.00, 0.00, -0.00, -1.00, 707.2, 743.5)">е</text><text xml:space="preserve" font-family="Helvetica-Light,Helvetica" font-size="50.0" fill="#000000" transform="matrix(1.00, 0.00, -0.00, -1.00, 733.1, 743.5)">р</text><text xml:space="preserve" font-family="Helvetica-Light,Helvetica" font-size="50.0" fill="#000000" transform="matrix(1.00, 0.00, -0.00, -1.00, 761.8, 743.5)">е</text><path d="M 1195.8 792.0 L 1634.8 792.0 L 1634.8 732.0 L 1195.8 732.0 Z M 1195.8 792.0 " fill="#FEFFFE"></path><text xml:space="preserve" font-family="Helvetica-Light,Helvetica" font-size="50.0" fill="#000000" transform="matrix(1.00, 0.00, -0.00, -1.00, 1195.8, 743.5)">о</text><text xml:space="preserve" font-family="Helvetica-Light,Helvetica" font-size="50.0" fill="#000000" transform="matrix(1.00, 0.00, -0.00, -1.00, 1223.6, 743.5)">б</text><text xml:space="preserve" font-family="Helvetica-Light,Helvetica" font-size="50.0" fill="#000000" transform="matrix(1.00, 0.00, -0.00, -1.00, 1251.4, 743.5)">щ</text><text xml:space="preserve" font-family="Helvetica-Light,Helvetica" font-size="50.0" fill="#000000" transform="matrix(1.00, 0.00, -0.00, -1.00, 1291.8, 743.5)">е</text><text xml:space="preserve" font-family="Helvetica-Light,Helvetica" font-size="50.0" fill="#000000" transform="matrix(1.00, 0.00, -0.00, -1.00, 1317.7, 743.5)">н</text><text xml:space="preserve" font-family="Helvetica-Light,Helvetica" font-size="50.0" fill="#000000" transform="matrix(1.00, 0.00, -0.00, -1.00, 1344.6, 743.5)">и</text><text xml:space="preserve" font-family="Helvetica-Light,Helvetica" font-size="50.0" fill="#000000" transform="matrix(1.00, 0.00, -0.00, -1.00, 1371.8, 743.5)">е</text><text xml:space="preserve" font-family="Helvetica-Light,Helvetica" font-size="50.0" fill="#000000" transform="matrix(1.00, 0.00, -0.00, -1.00, 1397.7, 743.5)"> </text><text xml:space="preserve" font-family="Helvetica-Light,Helvetica" font-size="50.0" fill="#000000" transform="matrix(1.00, 0.00, -0.00, -1.00, 1411.6, 743.5)">в</text><text xml:space="preserve" font-family="Helvetica-Light,Helvetica" font-size="50.0" fill="#000000" transform="matrix(1.00, 0.00, -0.00, -1.00, 1437.5, 743.5)"> </text><text xml:space="preserve" font-family="Helvetica-Light,Helvetica" font-size="50.0" fill="#000000" transform="matrix(1.00, 0.00, -0.00, -1.00, 1451.4, 743.5)">p</text><text xml:space="preserve" font-family="Helvetica-Light,Helvetica" font-size="50.0" fill="#000000" transform="matrix(1.00, 0.00, -0.00, -1.00, 1481.9, 743.5)">e</text><text xml:space="preserve" font-family="Helvetica-Light,Helvetica" font-size="50.0" fill="#000000" transform="matrix(1.00, 0.00, -0.00, -1.00, 1509.7, 743.5)">n</text><text xml:space="preserve" font-family="Helvetica-Light,Helvetica" font-size="50.0" fill="#000000" transform="matrix(1.00, 0.00, -0.00, -1.00, 1537.5, 743.5)">c</text><text xml:space="preserve" font-family="Helvetica-Light,Helvetica" font-size="50.0" fill="#000000" transform="matrix(1.00, 0.00, -0.00, -1.00, 1565.3, 743.5)">h</text><text xml:space="preserve" font-family="Helvetica-Light,Helvetica" font-size="50.0" fill="#000000" transform="matrix(1.00, 0.00, -0.00, -1.00, 1593.1, 743.5)">a</text><text xml:space="preserve" font-family="Helvetica-Light,Helvetica" font-size="50.0" fill="#000000" transform="matrix(1.00, 0.00, -0.00, -1.00, 1620.9, 743.5)">t</text></g></svg>